<svg height='300px' width='300px'  fill="#FFFFFF" xmlns="http://www.w3.org/2000/svg" xmlns:xlink="http://www.w3.org/1999/xlink" xml:space="preserve" version="1.1" style="shape-rendering:geometricPrecision;text-rendering:geometricPrecision;image-rendering:optimizeQuality;" viewBox="0 0 333 333" x="0px" y="0px" fill-rule="evenodd" clip-rule="evenodd"><defs><style type="text/css">
   
    .fil0 {fill:#FFFFFF}
   
  </style></defs><g><path class="fil0" d="M286 100l-64 64 42 42 -27 28 -43 -43 -27 28 -28 -28 -42 43 -28 -28 43 -42 -64 -64 54 0 37 37 28 -28 27 28 37 -37 55 0zm-16 6l-36 0 -40 40 -27 -28 -28 28 -40 -40 -35 0 57 58 -42 42 18 18 42 -42 28 27 27 -27 43 42 18 -18 -43 -42 58 -58z"></path></g></svg>